# xmcd
#
# Track frame offsets: 
#        150
#        19257
#        35980
#        53125
#        69857
#        92562
#        115647
#        131880
#        146107
#        162282
#        176197
#        191870
#
# Disc length: 2765 seconds
#
# Revision: 1
# Processed by: cddbd v1.5.2PL0 Copyright (c) Steve Scherf et al.
# Submitted via: ExactAudioCopy v0.99pb4
#
DISCID=b10acb0c
DTITLE=Nana Mouskouri - Sings The Great Movie Themes
DYEAR=1900
DGENRE=Jazz
TTITLE0=Beauty and the beast
TTITLE1=Over the rainbow
TTITLE2=How do you keep the music playing
TTITLE3=A day in the life of a fool
TTITLE4=The wind beneath my wings
TTITLE5=Autumn leaves
TTITLE6=The summer knows
TTITLE7=My own true love
TTITLE8=The way we were
TTITLE9=Smile
TTITLE10=As time goes by
TTITLE11=Laura
EXTD=
EXTT0=
EXTT1=
EXTT2=
EXTT3=
EXTT4=
EXTT5=
EXTT6=
EXTT7=
EXTT8=
EXTT9=
EXTT10=
EXTT11=
PLAYORDER=
